<svg width="32" height="32" viewBox="0 0 32 32" fill="none" xmlns="http://www.w3.org/2000/svg">
<path d="M22.748 16.75L7.74805 16.75C7.54913 16.75 7.35837 16.671 7.21772 16.5303C7.07706 16.3897 6.99805 16.1989 6.99805 16C6.99805 15.8011 7.07706 15.6103 7.21772 15.4697C7.35837 15.329 7.54913 15.25 7.74805 15.25L22.748 15.25C22.947 15.25 23.1377 15.329 23.2784 15.4697C23.419 15.6103 23.498 15.8011 23.498 16C23.498 16.1989 23.419 16.3897 23.2784 16.5303C23.1377 16.671 22.947 16.75 22.748 16.75Z" fill="#C5A7FF"/>
<path d="M22.4375 16L16.217 9.78103C16.0762 9.6402 15.9971 9.44919 15.9971 9.25003C15.9971 9.05087 16.0762 8.85986 16.217 8.71903C16.3579 8.5782 16.5489 8.49908 16.748 8.49908C16.9472 8.49908 17.1382 8.5782 17.279 8.71903L24.029 15.469C24.0989 15.5387 24.1543 15.6215 24.1921 15.7126C24.2299 15.8037 24.2494 15.9014 24.2494 16C24.2494 16.0987 24.2299 16.1964 24.1921 16.2875C24.1543 16.3786 24.0989 16.4614 24.029 16.531L17.279 23.281C17.1382 23.4219 16.9472 23.501 16.748 23.501C16.5489 23.501 16.3579 23.4219 16.217 23.281C16.0762 23.1402 15.9971 22.9492 15.9971 22.75C15.9971 22.5509 16.0762 22.3599 16.217 22.219L22.4375 16Z" fill="#C5A7FF"/>
</svg>
