<svg width="32" height="32" viewBox="0 0 32 32" fill="none" xmlns="http://www.w3.org/2000/svg">
<circle cx="16" cy="16" r="16" fill="#1834A1"/>
<path fill-rule="evenodd" clip-rule="evenodd" d="M16 23.2C16.9455 23.2 17.8818 23.0138 18.7553 22.652C19.6289 22.2901 20.4226 21.7598 21.0912 21.0912C21.7598 20.4226 22.2901 19.6289 22.6519 18.7554C23.0138 17.8818 23.2 16.9456 23.2 16C23.2 15.0545 23.0138 14.1183 22.6519 13.2447C22.2901 12.3712 21.7598 11.5775 21.0912 10.9089C20.4226 10.2403 19.6289 9.70995 18.7553 9.34812C17.8818 8.98628 16.9455 8.80005 16 8.80005C14.0904 8.80005 12.2591 9.55862 10.9088 10.9089C9.55857 12.2591 8.8 14.0905 8.8 16C8.8 17.9096 9.55857 19.741 10.9088 21.0912C12.2591 22.4415 14.0904 23.2 16 23.2ZM15.8144 18.912L19.8144 14.112L18.5856 13.088L15.1456 17.2152L13.3656 15.4344L12.2344 16.5656L14.6344 18.9656L15.2536 19.5848L15.8144 18.912Z" fill="#F3F8FF"/>
</svg>
